<svg width="1020.444775390625px" height="196.4px" xmlns="http://www.w3.org/2000/svg" viewBox="-260.2223876953125 -23.200000000000003 1020.444775390625 196.4" style="background: none;" preserveAspectRatio="xMidYMid"><defs><filter id="editing-hole" x="-100%" y="-100%" width="300%" height="300%"><feFlood flood-color="#000000" result="black"></feFlood><feMorphology operator="dilate" radius="2" in="SourceGraphic" result="erode"></feMorphology><feGaussianBlur in="erode" stdDeviation="4" result="blur"></feGaussianBlur><feOffset in="blur" dx="2" dy="2" result="offset"></feOffset><feComposite operator="atop" in="offset" in2="black" result="merge"></feComposite><feComposite operator="in" in="merge" in2="SourceGraphic" result="inner-shadow"></feComposite></filter></defs><g filter="url(#editing-hole)"><g transform="translate(-110.63740539550781, 120.24000358581543)"><path d="M54.91-26.10L54.91-26.10L54.91-26.10Q65-25.79 65.57-25.79L65.57-25.79L65.57-25.79Q66.14-25.79 66.25-25.79L66.25-25.79L66.25-25.79Q68.74-26.00 68.74-25.06L68.74-25.06L68.74-25.06Q68.74-23.61 64.69-23.61L64.69-23.61L55.85-23.82L55.85-23.82Q53.14-23.61 52.62-23.30L52.62-23.30L52.62-23.30Q48.26-17.89 40.87-7.64L40.87-7.64L40.87-7.64Q33.49 2.60 33.49 4.58L33.49 4.58L33.49 4.58Q33.49 5.41 35.36 4.16L35.36 4.16L35.36 4.16Q36.50 4.16 36.50 4.47L36.50 4.47L36.50 4.47Q36.50 4.99 34.22 6.03L34.22 6.03L31.30 7.59L31.30 7.59Q29.33 9.26 26.78 9.26L26.78 9.26L26.78 9.26Q24.23 9.26 24.44 8.01L24.44 8.01L24.44 8.01Q24.54 5.51 31.82-4.63L31.82-4.63L31.82-4.63Q39.10-14.77 46.90-23.92L46.90-23.92L46.90-23.92Q39.42-22.57 35.46-22.57L35.46-22.57L35.46-22.57Q35.05-22.67 35.05-23.24L35.05-23.24L35.05-23.24Q35.05-23.82 36.30-24.86L36.30-24.86L36.30-24.86Q37.54-25.90 38.95-25.90L38.95-25.90L38.95-25.90Q40.35-25.90 43.47-26.00L43.47-26.00L48.78-26.00L48.78-26.00Q52.31-30.78 64.48-48.05L64.48-48.05L64.48-48.05Q69.47-55.22 69.47-59.90L69.47-59.90L69.47-59.90Q69.47-67.18 58.66-67.18L58.66-67.18L58.66-67.18Q50.23-67.18 38.84-62.50L38.84-62.50L38.84-62.50Q27.46-57.82 17.89-49.71L17.89-49.71L17.89-49.71Q11.13-44.10 7.18-37.54L7.18-37.54L7.18-37.54Q3.22-30.99 3.22-25.90L3.22-25.90L3.22-25.90Q3.22-17.68 13.00-17.68L13.00-17.68L13.00-17.68Q13.83-17.68 14.77-17.78L14.77-17.78L14.77-17.78Q21.11-18.30 26.78-25.01L26.78-25.01L26.78-25.01Q32.45-31.72 32.45-36.30L32.45-36.30L32.45-36.30Q32.45-36.71 32.34-37.23L32.34-37.23L32.34-37.23Q35.05-36.71 35.05-34.01L35.05-34.01L35.05-34.01Q35.05-29.54 29.22-23.50L29.22-23.50L29.22-23.50Q21.32-15.29 10.92-15.29L10.92-15.29L10.92-15.29Q5.20-15.29 1.98-18.30L1.98-18.30L1.98-18.30Q-1.25-21.32-1.25-26.52L-1.25-26.52L-1.25-26.52Q-1.25-38.79 13.73-51.27L13.73-51.27L13.73-51.27Q24.54-60.11 36.71-64.64L36.71-64.64L36.71-64.64Q48.88-69.16 57.88-69.16L57.88-69.16L57.88-69.16Q66.87-69.16 71.29-66.56L71.29-66.56L71.29-66.56Q75.71-63.96 75.71-59.33L75.71-59.33L75.71-59.33Q75.71-54.70 71.66-48.88L71.66-48.88L71.66-48.88Q69.26-45.03 54.91-26.10ZM86.94 0.52L86.94 0.52L86.94 0.52Q79.14 0.52 79.14-8.11L79.14-8.11L79.14-8.11Q79.14-12.48 81.43-17.68L81.43-17.68L81.43-17.68Q83.72-22.88 86.42-26.42L86.42-26.42L86.42-26.42Q85.90-26.31 85.07-26.31L85.07-26.31L85.07-26.31Q82.58-26.31 80.91-29.85L80.91-29.85L73.22-19.86L73.22-19.86Q66.77-11.86 65.73-11.86L65.73-11.86L65.73-11.86Q65.21-11.86 65.21-12.27L65.21-12.27L65.21-12.27Q65.21-13.31 66.98-15.29L66.98-15.29L66.98-15.29Q76.02-25.79 79.77-33.07L79.77-33.07L79.77-33.07Q82.16-42.12 85.80-42.12L85.80-42.12L85.80-42.12Q88.19-42.12 88.19-40.04L88.19-40.04L88.19-40.04Q88.19-37.96 85.59-34.74L85.59-34.74L83.10-31.41L83.10-31.41Q83.10-29.22 86.32-29.22L86.32-29.22L86.32-29.22Q88.19-29.22 90.48-30.58L90.48-30.58L93.18-32.24L93.18-32.24Q93.39-32.34 94.22-32.34L94.22-32.34L94.22-32.34Q95.06-32.34 95.99-31.30L95.99-31.30L95.99-31.30Q96.93-30.26 96.62-29.43L96.62-29.43L89.44-20.38L89.44-20.38Q82.78-11.86 82.78-6.92L82.78-6.92L82.78-6.92Q82.78-1.98 87.36-1.98L87.36-1.98L87.36-1.98Q92.14-1.98 99.11-7.07L99.11-7.07L99.11-7.07Q103.27-10.09 106.70-13.83L106.70-13.83L106.70-13.83Q109.93-17.58 110.24-17.58L110.24-17.58L110.24-17.58Q110.97-17.58 110.97-16.80L110.97-16.80L110.97-16.80Q110.97-16.02 110.03-14.98L110.03-14.98L106.70-11.23L106.70-11.23Q103.90-8.32 100.46-5.62L100.46-5.62L100.46-5.62Q92.25 0.52 86.94 0.52ZM112.01 1.35L112.01 1.35L112.01 1.35Q110.86 1.35 109.93 1.04L109.93 1.04L109.93 1.04Q103.27-0.83 103.27-6.45L103.27-6.45L103.27-6.45Q103.27-13.73 112.42-23.30L112.42-23.30L112.42-23.30Q121.58-32.86 128.86-32.86L128.86-32.86L128.86-32.86Q131.25-32.86 132.76-31.56L132.76-31.56L132.76-31.56Q134.26-30.26 134.26-28.39L134.26-28.39L134.26-28.39Q134.26-22.57 125.48-17.26L125.48-17.26L125.48-17.26Q116.69-11.96 111.18-11.96L111.18-11.96L111.18-11.96Q110.34-11.96 109.72-12.17L109.72-12.17L109.72-12.17Q108.16-9.36 108.16-6.24L108.16-6.24L108.16-6.24Q108.16-0.83 113.31-0.83L113.31-0.83L113.31-0.83Q118.46-0.83 126.67-7.80L126.67-7.80L126.67-7.80Q133.02-12.90 137.49-18.62L137.49-18.62L137.49-18.62Q138.42-19.86 139.10-19.86L139.10-19.86L139.10-19.86Q139.78-19.86 139.78-19.24L139.78-19.24L139.78-19.24Q139.78-18.62 138.94-17.47L138.94-17.47L138.94-17.47Q133.33-10.09 125.42-4.37L125.42-4.37L125.42-4.37Q117.52 1.35 112.01 1.35ZM131.66-28.60L131.66-28.60L131.66-28.60Q131.66-29.85 129.01-29.85L129.01-29.85L129.01-29.85Q126.36-29.85 121.47-25.79L121.47-25.79L121.47-25.79Q114.92-20.38 111.28-14.46L111.28-14.46L111.28-14.46Q111.90-14.25 112.63-14.25L112.63-14.25L112.63-14.25Q116.58-14.25 123.19-18.46L123.19-18.46L123.19-18.46Q129.79-22.67 131.46-27.66L131.46-27.66L131.46-27.66Q131.66-28.18 131.66-28.60ZM138.74 1.35L138.74 1.35L138.74 1.35Q137.59 1.35 136.66 1.04L136.66 1.04L136.66 1.04Q130.00-0.83 130.00-6.45L130.00-6.45L130.00-6.45Q130.00-13.73 139.15-23.30L139.15-23.30L139.15-23.30Q148.30-32.86 155.58-32.86L155.58-32.86L155.58-32.86Q157.98-32.86 159.48-31.56L159.48-31.56L159.48-31.56Q160.99-30.26 160.99-28.39L160.99-28.39L160.99-28.39Q160.99-22.57 152.20-17.26L152.20-17.26L152.20-17.26Q143.42-11.96 137.90-11.96L137.90-11.96L137.90-11.96Q137.07-11.96 136.45-12.17L136.45-12.17L136.45-12.17Q134.89-9.36 134.89-6.24L134.89-6.24L134.89-6.24Q134.89-0.83 140.04-0.83L140.04-0.83L140.04-0.83Q145.18-0.83 153.40-7.80L153.40-7.80L153.40-7.80Q159.74-12.90 164.22-18.62L164.22-18.62L164.22-18.62Q165.15-19.86 165.83-19.86L165.83-19.86L165.83-19.86Q166.50-19.86 166.50-19.24L166.50-19.24L166.50-19.24Q166.50-18.62 165.67-17.47L165.67-17.47L165.67-17.47Q160.06-10.09 152.15-4.37L152.15-4.37L152.15-4.37Q144.25 1.35 138.74 1.35ZM158.39-28.60L158.39-28.60L158.39-28.60Q158.39-29.85 155.74-29.85L155.74-29.85L155.74-29.85Q153.09-29.85 148.20-25.79L148.20-25.79L148.20-25.79Q141.65-20.38 138.01-14.46L138.01-14.46L138.01-14.46Q138.63-14.25 139.36-14.25L139.36-14.25L139.36-14.25Q143.31-14.25 149.92-18.46L149.92-18.46L149.92-18.46Q156.52-22.67 158.18-27.66L158.18-27.66L158.18-27.66Q158.39-28.18 158.39-28.60ZM224.74-4.26L224.74-4.26L224.74-4.26Q222.25-0.42 222.25 0.73L222.25 0.73L222.25 0.73Q222.25 1.87 223.18 2.39L223.18 2.39L223.18 2.39Q223.18 2.50 221.31 3.95L221.31 3.95L221.31 3.95Q219.65 4.78 217.57 4.78L217.57 4.78L217.57 4.78Q215.49 4.78 214.55 4.32L214.55 4.32L214.55 4.32Q213.62 3.85 213.93 2.81L213.93 2.81L213.93 2.81Q215.38-1.87 224.85-15.96L224.85-15.96L224.85-15.96Q234.31-30.06 237.54-35.88L237.54-35.88L237.54-35.88Q244.50-48.46 244.50-55.95L244.50-55.95L244.50-55.95Q244.50-59.07 243.46-61.26L243.46-61.26L243.46-61.26Q241.38-65.52 233.58-65.52L233.58-65.52L233.58-65.52Q221.42-65.52 208.42-55.02L208.42-55.02L208.42-55.02Q198.02-46.59 192.50-37.18L192.50-37.18L192.50-37.18Q186.99-27.77 186.99-20.38L186.99-20.38L186.99-20.38Q186.99-9.78 196.35-9.57L196.35-9.57L196.35-9.57Q196.77-9.57 197.18-9.57L197.18-9.57L197.18-9.57Q209.14-9.57 215.70-18.20L215.70-18.20L215.70-18.20Q218.19-21.63 218.19-24.02L218.19-24.02L218.19-24.02Q218.19-26.42 217.15-27.04L217.15-27.04L217.15-27.04Q217.05-27.14 217.05-27.46L217.05-27.46L217.05-27.46Q217.05-27.77 217.67-27.77L217.67-27.77L217.67-27.77Q220.38-27.77 220.38-24.23L220.38-24.23L220.38-24.23Q220.38-22.05 218.24-18.30L218.24-18.30L218.24-18.30Q216.11-14.56 210.70-11.23L210.70-11.23L210.70-11.23Q205.30-7.90 198.12-7.90L198.12-7.90L198.12-7.90Q190.94-7.90 186.68-12.38L186.68-12.38L186.68-12.38Q182.42-16.85 182.42-24.13L182.42-24.13L182.42-24.13Q182.42-40.56 203.84-57.72L203.84-57.72L203.84-57.72Q209.35-62.09 218.35-64.90L218.35-64.90L218.35-64.90Q227.34-67.70 235.56-67.70L235.56-67.70L235.56-67.70Q243.78-67.70 246.74-64.84L246.74-64.84L246.74-64.84Q249.70-61.98 249.70-57.20L249.70-57.20L249.70-57.20Q249.70-49.92 243.78-37.54L243.78-37.54L243.78-37.54Q241.90-33.70 235.35-23.50L235.35-23.50L243.36-33.70L243.36-33.70Q249.18-41.29 263.54-55.33L263.54-55.33L263.54-55.33Q266.66-58.34 270.45-60.37L270.45-60.37L270.45-60.37Q274.25-62.40 276.95-62.40L276.95-62.40L276.95-62.40Q280.70-62.40 280.70-58.45L280.70-58.45L280.70-58.45Q280.70-55.02 277.42-48.10L277.42-48.10L277.42-48.10Q274.14-41.18 270.82-35.00L270.82-35.00L270.82-35.00Q267.49-28.81 266.76-26.88L266.76-26.88L266.76-26.88Q266.03-24.96 265.72-23.82L265.72-23.82L265.72-23.82Q265.41-22.67 265.30-22.57L265.30-22.57L265.30-22.57Q265.62-23.09 272.17-30.52L272.17-30.52L272.17-30.52Q278.72-37.96 291.51-49.09L291.51-49.09L308.15-62.82L308.15-62.82Q310.13-64.48 311.69-64.48L311.69-64.48L311.69-64.48Q313.25-64.48 314.24-61.88L314.24-61.88L314.24-61.88Q315.22-59.28 315.22-57.67L315.22-57.67L315.22-57.67Q315.22-56.06 310.23-50.96L310.23-50.96L310.23-50.96Q297.23-37.65 288.18-21.84L288.18-21.84L288.18-21.84Q279.14-6.03 279.14 0.73L279.14 0.73L279.14 0.73Q279.14 2.50 279.76 3.17L279.76 3.17L279.76 3.17Q280.38 3.85 281.74 3.59L281.74 3.59L281.74 3.59Q283.09 3.33 287.40 1.46L287.40 1.46L287.40 1.46Q291.72-0.42 293.07-0.73L293.07-0.73L293.07-0.73Q293.59-0.52 293.59-0.21L293.59-0.21L293.59-0.21Q293.59 1.35 288.13 4.16L288.13 4.16L288.13 4.16Q282.67 6.97 279.92 6.97L279.92 6.97L279.92 6.97Q277.16 6.97 276.54 6.03L276.54 6.03L276.54 6.03Q274.66 3.33 274.66-0.52L274.66-0.52L274.66-0.52Q274.66-9.46 284.23-26.21L284.23-26.21L284.23-26.21Q290.37-36.71 303.16-54.50L303.16-54.50L303.16-54.50Q293.18-46.38 276.12-29.64L276.12-29.64L276.12-29.64Q259.06-12.90 253.76-3.43L253.76-3.43L253.76-3.43Q251.06 1.46 247.21 1.46L247.21 1.46L247.21 1.46Q245.44 1.46 245.44 0.21L245.44 0.21L245.44 0.21Q245.44-0.21 247.57-3.54L247.57-3.54L247.57-3.54Q249.70-6.86 256.98-19.14L256.98-19.14L256.98-19.14Q274.87-50.23 274.87-56.58L274.87-56.58L274.87-56.58Q274.87-58.24 273.73-58.24L273.73-58.24L273.73-58.24Q272.06-58.24 268.84-55.43L268.84-55.43L268.84-55.43Q257.30-45.76 244.30-30.16L244.30-30.16L244.30-30.16Q231.30-14.56 224.74-4.26ZM321.46-42.43L321.46-42.43Q323.02-42.43 324.43-41.44L324.43-41.44L324.43-41.44Q325.83-40.46 325.83-39.10L325.83-39.10L325.83-39.10Q325.83-37.75 324.53-36.76L324.53-36.76L324.53-36.76Q323.23-35.78 321.67-35.78L321.67-35.78L321.67-35.78Q320.11-35.78 318.81-36.92L318.81-36.92L318.81-36.92Q317.51-38.06 317.51-39.52L317.51-39.52L317.51-39.52Q317.51-42.43 321.46-42.43L321.46-42.43ZM302.64 1.14L302.64 1.14L302.64 1.14Q297.34 1.14 297.34-5.72L297.34-5.72L297.34-5.72Q297.34-11.34 303.47-21.27L303.47-21.27L303.47-21.27Q309.61-31.20 313.35-31.30L313.35-31.30L313.35-31.30Q314.39-31.30 315.69-30.47L315.69-30.47L315.69-30.47Q316.99-29.64 316.99-28.81L316.99-28.81L316.99-28.81Q316.47-28.08 315.74-27.20L315.74-27.20L315.74-27.20Q315.02-26.31 314.18-25.27L314.18-25.27L314.18-25.27Q313.35-24.23 311.90-22.31L311.90-22.31L311.90-22.31Q310.44-20.38 309.09-18.62L309.09-18.62L309.09-18.62Q301.29-8.53 301.29-4.73L301.29-4.73L301.29-4.73Q301.29-0.94 303.89-0.94L303.89-0.94L303.89-0.94Q306.07-0.94 309.82-3.33L309.82-3.33L309.82-3.33Q318.55-8.74 323.65-15.18L323.65-15.18L323.65-15.18Q325.52-17.58 326.20-17.58L326.20-17.58L326.20-17.58Q326.87-17.58 326.87-16.74L326.87-16.74L326.87-16.74Q326.87-15.91 324.48-13.42L324.48-13.42L324.48-13.42Q322.09-10.92 320.68-9.46L320.68-9.46L320.68-9.46Q319.28-8.01 318.76-7.54L318.76-7.54L318.76-7.54Q318.24-7.07 316.84-5.77L316.84-5.77L316.84-5.77Q315.43-4.47 314.70-3.95L314.70-3.95L314.70-3.95Q313.98-3.43 312.62-2.39L312.62-2.39L312.62-2.39Q311.27-1.35 310.23-0.88L310.23-0.88L310.23-0.88Q309.19-0.42 307.84 0.21L307.84 0.21L307.84 0.21Q305.66 1.14 302.64 1.14ZM339.14-32.86L339.14-32.86L339.14-32.86Q341.95-32.86 341.95-30.68L341.95-30.68L341.95-30.68Q341.95-30.06 341.64-29.43L341.64-29.43L341.64-29.43Q332.28-16.43 330.41-9.78L330.41-9.78L330.41-9.78Q354.64-34.01 359.84-34.01L359.84-34.01L359.84-34.01Q360.36-34.11 360.78-34.11L360.78-34.11L360.78-34.11Q363.69-34.11 363.69-31.51L363.69-31.51L363.69-31.51Q363.69-30.99 363.48-30.47L363.48-30.47L363.48-30.47Q363.27-29.95 359.32-24.86L359.32-24.86L359.32-24.86Q354.74-19.45 351.57-14.46L351.57-14.46L351.57-14.46Q348.40-9.46 348.40-6.14L348.40-6.14L348.40-6.14Q348.40-2.81 349.86-2.81L349.86-2.81L349.86-2.81Q354.43-2.81 365.77-15.39L365.77-15.39L365.77-15.39Q365.98-15.60 366.50-16.33L366.50-16.33L366.50-16.33Q368.06-18.20 368.37-18.20L368.37-18.20L368.37-18.20Q368.68-18.20 368.68-17.16L368.68-17.16L368.68-17.16Q368.68-16.12 367.22-14.46L367.22-14.46L367.22-14.46Q354.33 0.21 348.92 0.21L348.92 0.21L348.92 0.21Q343.82 0.21 343.82-5.41L343.82-5.41L343.82-5.41Q343.82-11.02 347.98-18.30L347.98-18.30L354.64-29.12L354.64-29.12Q347.57-23.92 342.06-17.73L342.06-17.73L342.06-17.73Q336.54-11.54 332.02-5.72L332.02-5.72L332.02-5.72Q327.50 0.10 326.77 0.10L326.77 0.10L326.77 0.10Q325.21 0.10 324.32-1.20L324.32-1.20L324.32-1.20Q323.44-2.50 323.44-4.42L323.44-4.42L323.44-4.42Q323.44-6.34 324.79-9.57L324.79-9.57L324.79-9.57Q326.14-12.79 328.22-17.37L328.22-17.37L321.98-10.82L321.98-10.82Q319.70-8.53 319.12-8.53L319.12-8.53L319.12-8.53Q318.55-8.53 318.55-9.20L318.55-9.20L318.55-9.20Q318.55-9.88 319.38-10.71L319.38-10.71L319.38-10.71Q323.23-14.56 326.04-18.10L326.04-18.10L326.04-18.10Q328.74-21.63 337.17-31.62L337.17-31.62L337.17-31.62Q338.10-32.86 339.14-32.86ZM398.42-31.51L398.42-31.51L398.42-31.51Q410.07-50.44 414.65-50.44L414.65-50.44L414.65-50.44Q415.38-50.44 416.68-49.97L416.68-49.97L416.68-49.97Q417.98-49.50 417.98-48.57L417.98-48.57L417.98-48.57Q417.98-48.05 417.46-47.22L417.46-47.22L417.46-47.22Q409.14-37.02 405.08-31.93L405.08-31.93L405.08-31.93Q392.81-16.43 391.56-9.67L391.56-9.67L391.56-9.67Q391.25-8.22 391.25-6.76L391.25-6.76L391.25-6.76Q391.25-2.08 395.10-2.08L395.10-2.08L395.10-2.08Q402.79-2.08 415.17-16.33L415.17-16.33L415.17-16.33Q416.21-17.37 416.94-17.52L416.94-17.52L416.94-17.52Q417.66-17.68 417.66-17.16L417.66-17.16L417.66-17.16Q417.66-16.64 417.04-15.91L417.04-15.91L417.04-15.91Q404.98-1.46 395.62 0.21L395.62 0.21L395.62 0.21Q395.10 0.31 394.16 0.31L394.16 0.31L394.16 0.31Q390.94 0.31 389.32-1.92L389.32-1.92L389.32-1.92Q387.71-4.16 387.71-6.76L387.71-6.76L387.71-6.76Q387.71-9.67 388.86-13.21L388.86-13.21L380.43-4.78L380.43-4.78Q374.71 0.52 371.44 0.52L371.44 0.52L371.44 0.52Q368.16 0.52 365.98-1.25L365.98-1.25L365.98-1.25Q363.38-3.22 363.38-6.76L363.38-6.76L363.38-6.76Q363.38-14.35 373.98-24.91L373.98-24.91L373.98-24.91Q384.59-35.46 393.43-35.46L393.43-35.46L393.43-35.46Q396.34-35.46 397.49-33.90L397.49-33.90L397.49-33.90Q397.90-33.38 398.42-31.51ZM367.74-5.51L367.74-5.51L367.74-5.51Q367.74-1.77 370.34-1.77L370.34-1.77L370.34-1.77Q374.82-1.77 385.22-14.04L385.22-14.04L385.22-14.04Q387.09-16.22 397.70-30.37L397.70-30.37L397.70-30.37Q396.97-31.62 395.20-31.62L395.20-31.62L395.20-31.62Q388.75-31.62 378.25-21.79L378.25-21.79L378.25-21.79Q367.74-11.96 367.74-5.51ZM557.86-46.49L557.86-46.49L557.86-46.49Q557.86-41.18 552.55-34.84L552.55-34.84L552.55-34.84Q547.25-28.50 536.48-24.54L536.48-24.54L536.48-24.54Q525.72-20.59 515.58-20.59L515.58-20.59L515.58-20.59Q505.44-20.59 499.51-23.19L499.51-23.19L499.51-23.19Q486.41-3.95 482.46 0L482.46 0L482.46 0Q471.22 11.23 455.62 11.23L455.62 11.23L455.62 11.23Q446.78 11.23 442.36 7.12L442.36 7.12L442.36 7.12Q437.94 3.02 437.94-3.54L437.94-3.54L437.94-3.54Q437.94-12.58 445.22-20.59L445.22-20.59L445.22-20.59Q453.23-29.43 465.40-29.43L465.40-29.43L465.40-29.43Q470.39-29.43 473.82-27.14L473.82-27.14L473.82-27.14Q477.26-24.86 477.26-20.18L477.26-20.18L477.26-20.18Q477.26-17.06 473.72-12.69L473.72-12.69L473.72-12.69Q470.18-8.32 469.35-8.32L469.35-8.32L469.35-8.32Q469.14-8.32 469.14-8.74L469.14-8.74L469.14-8.74Q469.14-9.15 469.46-9.57L469.46-9.57L469.46-9.57Q472.78-14.46 472.78-18.56L472.78-18.56L472.78-18.56Q472.78-22.67 470.24-24.91L470.24-24.91L470.24-24.91Q467.69-27.14 463.94-27.14L463.94-27.14L463.94-27.14Q455.21-27.14 448.50-19.19L448.50-19.19L448.50-19.19Q441.79-11.23 441.79-3.12L441.79-3.12L441.79-3.12Q441.79 2.08 445.07 5.30L445.07 5.30L445.07 5.30Q448.34 8.53 455.21 8.53L455.21 8.53L455.21 8.53Q468.00 8.53 477.15-0.10L477.15-0.10L477.15-0.10Q482.46-5.10 487.86-14.66L487.86-14.66L496.91-30.99L496.91-30.99Q503.57-41.70 512.41-62.82L512.41-62.82L512.41-62.82Q511.47-62.82 510.54-62.82L510.54-62.82L510.54-62.82Q496.50-62.82 482.35-59.75L482.35-59.75L482.35-59.75Q468.21-56.68 460.93-50.96L460.93-50.96L460.93-50.96Q457.81-48.57 457.81-46.28L457.81-46.28L457.81-46.28Q457.81-43.99 460.25-42.59L460.25-42.59L460.25-42.59Q462.70-41.18 466.02-41.18L466.02-41.18L466.02-41.18Q469.35-41.18 474.29-42.48L474.29-42.48L474.29-42.48Q479.23-43.78 481.73-45.97L481.73-45.97L481.73-45.97Q482.77-46.80 483.18-46.80L483.18-46.80L483.18-46.80Q484.02-46.80 483.50-45.97L483.50-45.97L483.50-45.97Q479.75-41.60 472.16-39.42L472.16-39.42L472.16-39.42Q467.48-38.06 462.90-38.06L462.90-38.06L462.90-38.06Q458.33-38.06 455.42-40.09L455.42-40.09L455.42-40.09Q452.50-42.12 452.50-45.60L452.50-45.60L452.50-45.60Q452.50-49.09 456.25-52.62L456.25-52.62L456.25-52.62Q463.32-59.49 481.52-62.82L481.52-62.82L481.52-62.82Q494.42-65.10 511.16-65.10L511.16-65.10L511.16-65.10Q512.51-65.10 513.97-65.10L513.97-65.10L513.97-65.10Q516.26-67.08 518.13-67.08L518.13-67.08L518.13-67.08Q520.00-67.08 520.00-65.62L520.00-65.62L520.00-65.62Q520.00-65.31 519.90-64.90L519.90-64.90L519.90-64.90Q536.02-63.75 546.00-59.49L546.00-59.49L546.00-59.49Q557.86-54.50 557.86-46.49ZM552.97-47.53L552.97-47.53L552.97-47.53Q552.97-54.08 542.36-58.24L542.36-58.24L542.36-58.24Q533.10-61.88 519.17-62.61L519.17-62.61L515.84-52.21L515.84-52.21Q511.89-42.43 500.66-24.96L500.66-24.96L500.66-24.96Q501.70-24.44 504.19-23.82L504.19-23.82L504.19-23.82Q508.35-23.09 510.64-23.09L510.64-23.09L510.64-23.09Q518.54-23.09 528.84-26.36L528.84-26.36L528.84-26.36Q539.14-29.64 546.05-35.93L546.05-35.93L546.05-35.93Q552.97-42.22 552.97-47.53ZM564.62 0.52L564.62 0.52L564.62 0.52Q556.82 0.52 556.82-8.11L556.82-8.11L556.82-8.11Q556.82-12.48 559.10-17.68L559.10-17.68L559.10-17.68Q561.39-22.88 564.10-26.42L564.10-26.42L564.10-26.42Q563.58-26.31 562.74-26.31L562.74-26.31L562.74-26.31Q560.25-26.31 558.58-29.85L558.58-29.85L550.89-19.86L550.89-19.86Q544.44-11.86 543.40-11.86L543.40-11.86L543.40-11.86Q542.88-11.86 542.88-12.27L542.88-12.27L542.88-12.27Q542.88-13.31 544.65-15.29L544.65-15.29L544.65-15.29Q553.70-25.79 557.44-33.07L557.44-33.07L557.44-33.07Q559.83-42.12 563.47-42.12L563.47-42.12L563.47-42.12Q565.86-42.12 565.86-40.04L565.86-40.04L565.86-40.04Q565.86-37.96 563.26-34.74L563.26-34.74L560.77-31.41L560.77-31.41Q560.77-29.22 563.99-29.22L563.99-29.22L563.99-29.22Q565.86-29.22 568.15-30.58L568.15-30.58L570.86-32.24L570.86-32.24Q571.06-32.34 571.90-32.34L571.90-32.34L571.90-32.34Q572.73-32.34 573.66-31.30L573.66-31.30L573.66-31.30Q574.60-30.26 574.29-29.43L574.29-29.43L567.11-20.38L567.11-20.38Q560.46-11.86 560.46-6.92L560.46-6.92L560.46-6.92Q560.46-1.98 565.03-1.98L565.03-1.98L565.03-1.98Q569.82-1.98 576.78-7.07L576.78-7.07L576.78-7.07Q580.94-10.09 584.38-13.83L584.38-13.83L584.38-13.83Q587.60-17.58 587.91-17.58L587.91-17.58L587.91-17.58Q588.64-17.58 588.64-16.80L588.64-16.80L588.64-16.80Q588.64-16.02 587.70-14.98L587.70-14.98L584.38-11.23L584.38-11.23Q581.57-8.32 578.14-5.62L578.14-5.62L578.14-5.62Q569.92 0.52 564.62 0.52ZM611.52-22.05L611.52-22.05L611.52-22.05Q611.52-18.41 604.55-9.88L604.55-9.88L604.55-9.88Q596.34 0.21 590.51 0.21L590.51 0.21L588.85 0.21L588.85 0.21Q586.14 0.21 584.58-2.60L584.58-2.60L584.58-2.60Q583.34-4.58 583.34-6.97L583.34-6.97L583.34-6.97Q583.34-13.21 592.44-24.49L592.44-24.49L592.44-24.49Q601.54-35.78 607.15-35.78L607.15-35.78L607.15-35.78Q612.46-35.78 612.46-30.16L612.46-30.16L612.46-30.16Q612.46-28.70 611.94-26.42L611.94-26.42L611.94-26.42Q612.04-26.10 613.91-26.10L613.91-26.10L613.91-26.10Q615.78-26.10 619.63-28.08L619.63-28.08L619.63-28.08Q619.53-26.31 611.42-22.98L611.42-22.98L611.42-22.98Q611.52-22.57 611.52-22.05ZM604.76-27.46L604.76-27.46L604.76-27.46Q601.22-27.46 594.72-19.14L594.72-19.14L594.72-19.14Q588.22-10.82 588.22-6.86L588.22-6.86L588.22-6.86Q588.22-2.91 590.72-2.91L590.72-2.91L590.72-2.91Q595.19-2.91 602.06-11.02L602.06-11.02L602.06-11.02Q608.92-19.14 608.92-22.67L608.92-22.67L608.92-22.67Q607.26-23.61 604.76-27.46ZM634.82-42.64L634.82-42.64Q636.38-42.64 637.78-41.60L637.78-41.60L637.78-41.60Q639.18-40.56 639.18-39.26L639.18-39.26L639.18-39.26Q639.18-37.96 637.88-36.97L637.88-36.97L637.88-36.97Q636.58-35.98 635.02-35.98L635.02-35.98L635.02-35.98Q633.46-35.98 632.16-37.08L632.16-37.08L632.16-37.08Q630.86-38.17 630.86-39.62L630.86-39.62L630.86-39.62Q630.86-42.64 634.82-42.64L634.82-42.64ZM632.84-28.29L632.84-28.29L632.84-28.29Q632.84-27.66 624.62-13.52L624.62-13.52L624.62-13.52Q616.62 1.77 612.25 7.80L612.25 7.80L612.25 7.80Q602.78 21.32 594.46 21.32L594.46 21.32L594.46 21.32Q591.34 21.32 588.69 19.29L588.69 19.29L588.69 19.29Q586.04 17.26 586.04 15.24L586.04 15.24L586.04 15.24Q586.04 13.21 586.98 13.21L586.98 13.21L586.98 13.21Q587.08 13.21 589.11 15.86L589.11 15.86L589.11 15.86Q591.14 18.51 593.84 18.51L593.84 18.51L593.84 18.51Q602.16 18.51 612.77-0.31L612.77-0.31L612.77-0.31Q619.32-12.06 621.71-19.34L621.71-19.34L621.71-19.34Q620.46-17.89 617.40-15.08L617.40-15.08L617.40-15.08Q614.33-12.27 613.65-12.27L613.65-12.27L613.65-12.27Q612.98-12.27 612.98-12.58L612.98-12.58L612.98-12.58Q612.98-13.52 614.64-14.98L614.64-14.98L614.64-14.98Q616.30-16.43 619.11-20.49L619.11-20.49L619.11-20.49Q621.92-24.54 622.44-24.96L622.44-24.96L625.87-28.60L625.87-28.60Q627.95-30.58 630.40-30.58L630.40-30.58L630.40-30.58Q632.84-30.58 632.84-28.29ZM639.81 1.35L639.81 1.35L639.81 1.35Q638.66 1.35 637.73 1.04L637.73 1.04L637.73 1.04Q631.07-0.83 631.07-6.45L631.07-6.45L631.07-6.45Q631.07-13.73 640.22-23.30L640.22-23.30L640.22-23.30Q649.38-32.86 656.66-32.86L656.66-32.86L656.66-32.86Q659.05-32.86 660.56-31.56L660.56-31.56L660.56-31.56Q662.06-30.26 662.06-28.39L662.06-28.39L662.06-28.39Q662.06-22.57 653.28-17.26L653.28-17.26L653.28-17.26Q644.49-11.96 638.98-11.96L638.98-11.96L638.98-11.96Q638.14-11.96 637.52-12.17L637.52-12.17L637.52-12.17Q635.96-9.36 635.96-6.24L635.96-6.24L635.96-6.24Q635.96-0.83 641.11-0.83L641.11-0.83L641.11-0.83Q646.26-0.83 654.47-7.80L654.47-7.80L654.47-7.80Q660.82-12.90 665.29-18.62L665.29-18.62L665.29-18.62Q666.22-19.86 666.90-19.86L666.90-19.86L666.90-19.86Q667.58-19.86 667.58-19.24L667.58-19.24L667.58-19.24Q667.58-18.62 666.74-17.47L666.74-17.47L666.74-17.47Q661.13-10.09 653.22-4.37L653.22-4.37L653.22-4.37Q645.32 1.35 639.81 1.35ZM659.46-28.60L659.46-28.60L659.46-28.60Q659.46-29.85 656.81-29.85L656.81-29.85L656.81-29.85Q654.16-29.85 649.27-25.79L649.27-25.79L649.27-25.79Q642.72-20.38 639.08-14.46L639.08-14.46L639.08-14.46Q639.70-14.25 640.43-14.25L640.43-14.25L640.43-14.25Q644.38-14.25 650.99-18.46L650.99-18.46L650.99-18.46Q657.59-22.67 659.26-27.66L659.26-27.66L659.26-27.66Q659.46-28.18 659.46-28.60ZM669.14 1.35L669.14 1.35L669.14 1.35Q667.99 1.35 667.06 1.04L667.06 1.04L667.06 1.04Q660.40-0.83 660.40-6.45L660.40-6.45L660.40-6.45Q660.40-13.73 669.55-23.30L669.55-23.30L669.55-23.30Q678.70-32.86 685.98-32.86L685.98-32.86L685.98-32.86Q688.38-32.86 689.88-31.56L689.88-31.56L689.88-31.56Q691.39-30.26 691.39-28.03L691.39-28.03L691.39-28.03Q691.39-25.79 690.04-23.35L690.04-23.35L690.04-23.35Q688.69-20.90 685.98-20.90L685.98-20.90L685.98-20.90Q683.28-20.90 683.28-22.57L683.28-22.57L683.28-22.57Q683.28-23.71 684.68-26.05L684.68-26.05L684.68-26.05Q686.09-28.39 686.09-28.55L686.09-28.55L686.09-28.55Q686.09-28.70 685.78-28.70L685.78-28.70L685.78-28.70Q682.86-28.39 677.82-24.54L677.82-24.54L677.82-24.54Q672.78-20.70 670.90-18.10L670.90-18.10L666.85-12.17L666.85-12.17Q665.81-10.50 665.34-8.22L665.34-8.22L665.34-8.22Q664.87-5.93 664.87-4.78L664.87-4.78L664.87-4.78Q664.87-3.64 666.17-2.18L666.17-2.18L666.17-2.18Q667.47-0.73 669.86-0.73L669.86-0.73L669.86-0.73Q675.06-0.73 682.76-6.81L682.76-6.81L682.76-6.81Q690.46-12.90 694.62-18.41L694.62-18.41L694.62-18.41Q695.14-19.03 695.86-19.03L695.86-19.03L695.86-19.03Q696.59-19.03 696.59-18.62L696.59-18.62L696.59-18.62Q696.59-18.20 696.07-17.58L696.07-17.58L696.07-17.58Q690.35-9.98 682.40-4.32L682.40-4.32L682.40-4.32Q674.44 1.35 669.14 1.35ZM717.81-33.49L717.81-33.49L732.78-33.70L732.78-33.70Q733.10-33.49 733.10-33.38L733.10-33.38L733.10-33.38Q733.10-32.45 720.15-30.78L720.15-30.78L720.15-30.78Q707.20-29.12 706.16-28.81L706.16-28.81L706.16-28.81Q704.18-27.04 698.88-18.25L698.88-18.25L698.88-18.25Q693.58-9.46 693.58-5.41L693.58-5.41L693.58-5.41Q693.58-1.56 698.88-1.56L698.88-1.56L698.88-1.56Q701.38-1.56 705.43-3.12L705.43-3.12L705.43-3.12Q709.49-4.68 711.67-6.03L711.67-6.03L711.67-6.03Q717.50-9.67 724.15-16.74L724.15-16.74L724.15-16.74Q725.61-18.20 726.13-18.20L726.13-18.20L726.13-18.20Q726.44-18.20 726.44-17.58L726.44-17.58L726.44-17.58Q726.44-16.95 724.88-15.08L724.88-15.08L724.88-15.08Q719.47-8.42 712.71-4.37L712.71-4.37L712.71-4.37Q704.60 0.62 697.22 0.62L697.22 0.62L697.22 0.62Q693.99 0.62 691.96-0.78L691.96-0.78L691.96-0.78Q689.94-2.18 689.94-6.45L689.94-6.45L689.94-6.45Q689.94-10.71 693.68-18.15L693.68-18.15L693.68-18.15Q697.42-25.58 699.40-29.22L699.40-29.22L699.40-29.22Q697.94-28.91 696.90-28.91L696.90-28.91L696.90-28.91Q693.89-28.91 693.89-31.30L693.89-31.30L693.89-31.30Q693.89-33.07 696.38-33.80L696.38-33.80L696.38-33.80Q696.70-33.80 697.32-33.90L697.32-33.90L703.35-33.90L703.35-33.90Q705.22-36.30 707.62-39.42L707.62-39.42L707.62-39.42Q710.53-43.16 711.57-43.16L711.57-43.16L711.57-43.16Q712.61-43.16 714.17-42.33L714.17-42.33L714.17-42.33Q715.73-41.50 715.73-40.35L715.73-40.35L715.73-40.35Q715.73-39.21 710.74-33.59L710.74-33.59L710.74-33.59Q713.44-33.49 717.81-33.49Z" fill="#0a0a0a"></path></g></g><style>text {
  font-size: 64px;
  font-family: Arial Black;
  dominant-baseline: central;
  text-anchor: middle;
}</style></svg>